<mxfile host="app.diagrams.net" modified="2020-10-08T08:12:16.508Z" agent="5.0 (Windows NT 10.0; Win64; x64) AppleWebKit/537.36 (KHTML, like Gecko) Chrome/85.0.4183.121 Safari/537.36" etag="gAkkiPlPRKUUC4RtLv1-" version="13.7.8" type="github">
  <diagram id="C5RBs43oDa-KdzZeNtuy" name="Page-1">
    <mxGraphModel dx="1117" dy="679" grid="1" gridSize="10" guides="1" tooltips="1" connect="1" arrows="1" fold="1" page="1" pageScale="1" pageWidth="827" pageHeight="1169" math="0" shadow="0">
      <root>
        <mxCell id="WIyWlLk6GJQsqaUBKTNV-0" />
        <mxCell id="WIyWlLk6GJQsqaUBKTNV-1" parent="WIyWlLk6GJQsqaUBKTNV-0" />
        <mxCell id="1YF_AWun9UMj-2YR4GYA-7" value="" style="endArrow=open;html=1;endSize=12;startArrow=diamondThin;startSize=14;startFill=0;edgeStyle=orthogonalEdgeStyle;align=left;verticalAlign=bottom;" edge="1" parent="WIyWlLk6GJQsqaUBKTNV-1" source="1YF_AWun9UMj-2YR4GYA-0" target="1YF_AWun9UMj-2YR4GYA-4">
          <mxGeometry x="-1" y="3" relative="1" as="geometry">
            <mxPoint x="410" y="330" as="sourcePoint" />
            <mxPoint x="570" y="330" as="targetPoint" />
          </mxGeometry>
        </mxCell>
        <mxCell id="1YF_AWun9UMj-2YR4GYA-9" value="*" style="edgeLabel;html=1;align=center;verticalAlign=middle;resizable=0;points=[];" vertex="1" connectable="0" parent="1YF_AWun9UMj-2YR4GYA-7">
          <mxGeometry x="0.6795" y="1" relative="1" as="geometry">
            <mxPoint x="4.29" as="offset" />
          </mxGeometry>
        </mxCell>
        <mxCell id="1YF_AWun9UMj-2YR4GYA-17" value="mmap" style="edgeLabel;html=1;align=center;verticalAlign=middle;resizable=0;points=[];" vertex="1" connectable="0" parent="1YF_AWun9UMj-2YR4GYA-7">
          <mxGeometry x="0.2962" y="1" relative="1" as="geometry">
            <mxPoint x="-27.24" as="offset" />
          </mxGeometry>
        </mxCell>
        <mxCell id="1YF_AWun9UMj-2YR4GYA-27" value="1" style="edgeLabel;html=1;align=center;verticalAlign=middle;resizable=0;points=[];" vertex="1" connectable="0" parent="1YF_AWun9UMj-2YR4GYA-7">
          <mxGeometry x="-0.6288" y="1" relative="1" as="geometry">
            <mxPoint as="offset" />
          </mxGeometry>
        </mxCell>
        <mxCell id="1YF_AWun9UMj-2YR4GYA-18" value="" style="endArrow=open;html=1;endSize=12;startArrow=diamondThin;startSize=14;startFill=0;edgeStyle=orthogonalEdgeStyle;align=left;verticalAlign=bottom;" edge="1" parent="WIyWlLk6GJQsqaUBKTNV-1" source="1YF_AWun9UMj-2YR4GYA-4" target="1YF_AWun9UMj-2YR4GYA-13">
          <mxGeometry x="-1" y="3" relative="1" as="geometry">
            <mxPoint x="610" y="257" as="sourcePoint" />
            <mxPoint x="540" y="257" as="targetPoint" />
            <Array as="points">
              <mxPoint x="610" y="310" />
              <mxPoint x="410" y="310" />
            </Array>
          </mxGeometry>
        </mxCell>
        <mxCell id="1YF_AWun9UMj-2YR4GYA-19" value="0..1" style="edgeLabel;html=1;align=center;verticalAlign=middle;resizable=0;points=[];" vertex="1" connectable="0" parent="1YF_AWun9UMj-2YR4GYA-18">
          <mxGeometry x="0.6795" y="1" relative="1" as="geometry">
            <mxPoint y="19.91" as="offset" />
          </mxGeometry>
        </mxCell>
        <mxCell id="1YF_AWun9UMj-2YR4GYA-20" value="backed by" style="edgeLabel;html=1;align=center;verticalAlign=middle;resizable=0;points=[];" vertex="1" connectable="0" parent="1YF_AWun9UMj-2YR4GYA-18">
          <mxGeometry x="0.2962" y="1" relative="1" as="geometry">
            <mxPoint x="61.9" as="offset" />
          </mxGeometry>
        </mxCell>
        <mxCell id="1YF_AWun9UMj-2YR4GYA-21" value="1..*" style="edgeLabel;html=1;align=center;verticalAlign=middle;resizable=0;points=[];" vertex="1" connectable="0" parent="1YF_AWun9UMj-2YR4GYA-18">
          <mxGeometry x="-0.8196" y="-2" relative="1" as="geometry">
            <mxPoint as="offset" />
          </mxGeometry>
        </mxCell>
        <mxCell id="1YF_AWun9UMj-2YR4GYA-4" value="vm_area_struct" style="swimlane;fontStyle=1;align=center;verticalAlign=top;childLayout=stackLayout;horizontal=1;startSize=26;horizontalStack=0;resizeParent=1;resizeParentMax=0;resizeLast=0;collapsible=1;marginBottom=0;" vertex="1" parent="WIyWlLk6GJQsqaUBKTNV-1">
          <mxGeometry x="530" y="220" width="160" height="34" as="geometry" />
        </mxCell>
        <mxCell id="1YF_AWun9UMj-2YR4GYA-5" value="" style="line;strokeWidth=1;fillColor=none;align=left;verticalAlign=middle;spacingTop=-1;spacingLeft=3;spacingRight=3;rotatable=0;labelPosition=right;points=[];portConstraint=eastwest;" vertex="1" parent="1YF_AWun9UMj-2YR4GYA-4">
          <mxGeometry y="26" width="160" height="8" as="geometry" />
        </mxCell>
        <mxCell id="1YF_AWun9UMj-2YR4GYA-22" value="" style="endArrow=open;html=1;endSize=12;startArrow=diamondThin;startSize=14;startFill=0;edgeStyle=orthogonalEdgeStyle;align=left;verticalAlign=bottom;entryX=0.556;entryY=0.015;entryDx=0;entryDy=0;entryPerimeter=0;" edge="1" parent="WIyWlLk6GJQsqaUBKTNV-1" source="1YF_AWun9UMj-2YR4GYA-13" target="1YF_AWun9UMj-2YR4GYA-15">
          <mxGeometry x="-0.9497" y="17" relative="1" as="geometry">
            <mxPoint x="350" y="320" as="sourcePoint" />
            <mxPoint x="510" y="320" as="targetPoint" />
            <mxPoint as="offset" />
          </mxGeometry>
        </mxCell>
        <mxCell id="1YF_AWun9UMj-2YR4GYA-23" value="1" style="edgeLabel;html=1;align=center;verticalAlign=middle;resizable=0;points=[];" vertex="1" connectable="0" parent="1YF_AWun9UMj-2YR4GYA-22">
          <mxGeometry x="0.8145" y="1" relative="1" as="geometry">
            <mxPoint as="offset" />
          </mxGeometry>
        </mxCell>
        <mxCell id="1YF_AWun9UMj-2YR4GYA-25" value="page-cached in" style="edgeLabel;html=1;align=center;verticalAlign=middle;resizable=0;points=[];" vertex="1" connectable="0" parent="1YF_AWun9UMj-2YR4GYA-22">
          <mxGeometry x="-0.0921" y="-3" relative="1" as="geometry">
            <mxPoint as="offset" />
          </mxGeometry>
        </mxCell>
        <mxCell id="1YF_AWun9UMj-2YR4GYA-26" value="1" style="edgeLabel;html=1;align=center;verticalAlign=middle;resizable=0;points=[];" vertex="1" connectable="0" parent="1YF_AWun9UMj-2YR4GYA-22">
          <mxGeometry x="-0.7948" relative="1" as="geometry">
            <mxPoint x="5.52" as="offset" />
          </mxGeometry>
        </mxCell>
        <mxCell id="1YF_AWun9UMj-2YR4GYA-0" value="mm_struct" style="swimlane;fontStyle=1;align=center;verticalAlign=top;childLayout=stackLayout;horizontal=1;startSize=26;horizontalStack=0;resizeParent=1;resizeParentMax=0;resizeLast=0;collapsible=1;marginBottom=0;" vertex="1" parent="WIyWlLk6GJQsqaUBKTNV-1">
          <mxGeometry x="220" y="220" width="160" height="34" as="geometry" />
        </mxCell>
        <mxCell id="1YF_AWun9UMj-2YR4GYA-2" value="" style="line;strokeWidth=1;fillColor=none;align=left;verticalAlign=middle;spacingTop=-1;spacingLeft=3;spacingRight=3;rotatable=0;labelPosition=right;points=[];portConstraint=eastwest;" vertex="1" parent="1YF_AWun9UMj-2YR4GYA-0">
          <mxGeometry y="26" width="160" height="8" as="geometry" />
        </mxCell>
        <mxCell id="1YF_AWun9UMj-2YR4GYA-13" value="file" style="swimlane;fontStyle=1;align=center;verticalAlign=top;childLayout=stackLayout;horizontal=1;startSize=26;horizontalStack=0;resizeParent=1;resizeParentMax=0;resizeLast=0;collapsible=1;marginBottom=0;" vertex="1" parent="WIyWlLk6GJQsqaUBKTNV-1">
          <mxGeometry x="334" y="390" width="160" height="34" as="geometry" />
        </mxCell>
        <mxCell id="1YF_AWun9UMj-2YR4GYA-14" value="" style="line;strokeWidth=1;fillColor=none;align=left;verticalAlign=middle;spacingTop=-1;spacingLeft=3;spacingRight=3;rotatable=0;labelPosition=right;points=[];portConstraint=eastwest;" vertex="1" parent="1YF_AWun9UMj-2YR4GYA-13">
          <mxGeometry y="26" width="160" height="8" as="geometry" />
        </mxCell>
        <mxCell id="1YF_AWun9UMj-2YR4GYA-30" value="" style="endArrow=open;html=1;endSize=12;startArrow=diamondThin;startSize=14;startFill=0;edgeStyle=orthogonalEdgeStyle;align=left;verticalAlign=bottom;" edge="1" parent="WIyWlLk6GJQsqaUBKTNV-1" source="1YF_AWun9UMj-2YR4GYA-28" target="1YF_AWun9UMj-2YR4GYA-0">
          <mxGeometry x="-1" y="3" relative="1" as="geometry">
            <mxPoint x="400" y="270" as="sourcePoint" />
            <mxPoint x="560" y="270" as="targetPoint" />
          </mxGeometry>
        </mxCell>
        <mxCell id="1YF_AWun9UMj-2YR4GYA-32" value="1" style="edgeLabel;html=1;align=center;verticalAlign=middle;resizable=0;points=[];" vertex="1" connectable="0" parent="1YF_AWun9UMj-2YR4GYA-30">
          <mxGeometry x="0.7155" relative="1" as="geometry">
            <mxPoint as="offset" />
          </mxGeometry>
        </mxCell>
        <mxCell id="1YF_AWun9UMj-2YR4GYA-33" value="1" style="edgeLabel;html=1;align=center;verticalAlign=middle;resizable=0;points=[];" vertex="1" connectable="0" parent="1YF_AWun9UMj-2YR4GYA-30">
          <mxGeometry x="-0.707" y="-2" relative="1" as="geometry">
            <mxPoint y="13.14" as="offset" />
          </mxGeometry>
        </mxCell>
        <mxCell id="1YF_AWun9UMj-2YR4GYA-35" value="mm" style="edgeLabel;html=1;align=center;verticalAlign=middle;resizable=0;points=[];" vertex="1" connectable="0" parent="1YF_AWun9UMj-2YR4GYA-30">
          <mxGeometry x="0.0701" relative="1" as="geometry">
            <mxPoint as="offset" />
          </mxGeometry>
        </mxCell>
        <mxCell id="1YF_AWun9UMj-2YR4GYA-28" value="task_struct" style="swimlane;fontStyle=1;align=center;verticalAlign=top;childLayout=stackLayout;horizontal=1;startSize=26;horizontalStack=0;resizeParent=1;resizeParentMax=0;resizeLast=0;collapsible=1;marginBottom=0;" vertex="1" parent="WIyWlLk6GJQsqaUBKTNV-1">
          <mxGeometry x="220" y="50" width="160" height="34" as="geometry" />
        </mxCell>
        <mxCell id="1YF_AWun9UMj-2YR4GYA-29" value="" style="line;strokeWidth=1;fillColor=none;align=left;verticalAlign=middle;spacingTop=-1;spacingLeft=3;spacingRight=3;rotatable=0;labelPosition=right;points=[];portConstraint=eastwest;" vertex="1" parent="1YF_AWun9UMj-2YR4GYA-28">
          <mxGeometry y="26" width="160" height="8" as="geometry" />
        </mxCell>
        <mxCell id="1YF_AWun9UMj-2YR4GYA-15" value="address_space" style="swimlane;fontStyle=1;align=center;verticalAlign=top;childLayout=stackLayout;horizontal=1;startSize=26;horizontalStack=0;resizeParent=1;resizeParentMax=0;resizeLast=0;collapsible=1;marginBottom=0;" vertex="1" parent="WIyWlLk6GJQsqaUBKTNV-1">
          <mxGeometry x="570" y="460" width="160" height="34" as="geometry" />
        </mxCell>
        <mxCell id="1YF_AWun9UMj-2YR4GYA-16" value="" style="line;strokeWidth=1;fillColor=none;align=left;verticalAlign=middle;spacingTop=-1;spacingLeft=3;spacingRight=3;rotatable=0;labelPosition=right;points=[];portConstraint=eastwest;" vertex="1" parent="1YF_AWun9UMj-2YR4GYA-15">
          <mxGeometry y="26" width="160" height="8" as="geometry" />
        </mxCell>
        <mxCell id="1YF_AWun9UMj-2YR4GYA-38" value="" style="endArrow=open;html=1;endSize=12;startArrow=diamondThin;startSize=14;startFill=0;edgeStyle=orthogonalEdgeStyle;align=left;verticalAlign=bottom;" edge="1" parent="WIyWlLk6GJQsqaUBKTNV-1" source="1YF_AWun9UMj-2YR4GYA-15" target="1YF_AWun9UMj-2YR4GYA-36">
          <mxGeometry x="-1" y="3" relative="1" as="geometry">
            <mxPoint x="420" y="490" as="sourcePoint" />
            <mxPoint x="580" y="490" as="targetPoint" />
          </mxGeometry>
        </mxCell>
        <mxCell id="1YF_AWun9UMj-2YR4GYA-39" value="0..1" style="edgeLabel;html=1;align=center;verticalAlign=middle;resizable=0;points=[];" vertex="1" connectable="0" parent="1YF_AWun9UMj-2YR4GYA-38">
          <mxGeometry x="-0.7206" relative="1" as="geometry">
            <mxPoint y="5.31" as="offset" />
          </mxGeometry>
        </mxCell>
        <mxCell id="1YF_AWun9UMj-2YR4GYA-40" value="*" style="edgeLabel;html=1;align=center;verticalAlign=middle;resizable=0;points=[];" vertex="1" connectable="0" parent="1YF_AWun9UMj-2YR4GYA-38">
          <mxGeometry x="0.6668" relative="1" as="geometry">
            <mxPoint as="offset" />
          </mxGeometry>
        </mxCell>
        <mxCell id="1YF_AWun9UMj-2YR4GYA-41" value="store contents in" style="edgeLabel;html=1;align=center;verticalAlign=middle;resizable=0;points=[];" vertex="1" connectable="0" parent="1YF_AWun9UMj-2YR4GYA-38">
          <mxGeometry x="0.0633" y="-2" relative="1" as="geometry">
            <mxPoint as="offset" />
          </mxGeometry>
        </mxCell>
        <mxCell id="1YF_AWun9UMj-2YR4GYA-36" value="page" style="swimlane;fontStyle=1;align=center;verticalAlign=top;childLayout=stackLayout;horizontal=1;startSize=26;horizontalStack=0;resizeParent=1;resizeParentMax=0;resizeLast=0;collapsible=1;marginBottom=0;" vertex="1" parent="WIyWlLk6GJQsqaUBKTNV-1">
          <mxGeometry x="570" y="640" width="160" height="34" as="geometry" />
        </mxCell>
        <mxCell id="1YF_AWun9UMj-2YR4GYA-37" value="" style="line;strokeWidth=1;fillColor=none;align=left;verticalAlign=middle;spacingTop=-1;spacingLeft=3;spacingRight=3;rotatable=0;labelPosition=right;points=[];portConstraint=eastwest;" vertex="1" parent="1YF_AWun9UMj-2YR4GYA-36">
          <mxGeometry y="26" width="160" height="8" as="geometry" />
        </mxCell>
        <mxCell id="1YF_AWun9UMj-2YR4GYA-42" value="Better name: physical_pages_of_a_file" style="text;html=1;align=center;verticalAlign=middle;resizable=0;points=[];autosize=1;" vertex="1" parent="WIyWlLk6GJQsqaUBKTNV-1">
          <mxGeometry x="380" y="500" width="220" height="20" as="geometry" />
        </mxCell>
      </root>
    </mxGraphModel>
  </diagram>
</mxfile>
